<svg width="196" height="58" viewBox="0 0 196 58" fill="none" xmlns="http://www.w3.org/2000/svg">
<path d="M195.757 30.6632C195.757 30.1415 195.529 29.6849 195.333 29.261C195.105 28.9349 194.648 28.5763 194.648 28.0545L194.942 27.1741C194.942 26.4893 194.42 25.7719 194.192 25.1849L193.409 22.8045C193.083 22.0219 192.659 21.174 192.235 20.4892C191.55 19.4458 190.344 19.2827 189.822 18.8588L189.3 17.7501C187.996 16.9675 186.561 16.087 185.094 15.5001C184.67 15.4023 183.985 15.2718 183.561 15.0762C183.268 14.9783 182.681 14.7501 182.681 14.7501C182.387 14.6849 182.257 14.5218 181.996 14.3262C181.474 13.9022 180.887 13.4457 179.909 13.4457C179.387 13.4457 179.029 13.6414 178.605 13.7392C178.311 13.8044 177.952 13.8044 177.822 13.8044L176.844 13.6088C176.518 13.4131 176.518 13.4131 176.159 13.4131C175.507 13.4131 174.431 13.5109 173.844 13.837C173.615 13.9349 173.289 14.4892 173.094 14.5544C173.094 14.5544 172.115 14.3588 171.659 14.3588C171.105 14.424 169.8 14.6523 169.8 14.6523C168.202 15.4675 166.344 16.8371 164.876 17.9784C164.485 18.2718 164.778 18.8914 164.452 19.1523C164.159 19.4131 163.278 19.3153 163.05 19.4784C161.942 20.5218 160.963 22.1197 160.409 23.3914C160.409 23.3914 159.822 26.0654 159.691 26.261C159.463 26.5871 159.202 27.1415 159.17 27.3697C159.17 27.3697 158.615 28.348 158.289 28.8045C157.865 29.6849 157.768 30.3371 157.637 30.6958L157.702 32.3263C157.702 32.8806 157.996 33.2067 157.996 33.2067C157.996 33.7611 157.67 34.2502 157.572 34.4785C157.474 34.935 157.344 35.2611 157.344 35.7828C157.344 36.2067 158.322 41.0981 158.322 41.0981C158.844 42.7611 159.724 43.9676 160.507 45.2394C161.028 46.1524 161.55 47.0003 162.007 47.8807C162.105 48.109 162.3 48.5329 162.333 49.0546C162.528 49.8046 162.626 50.5546 163.083 51.1416C164.355 52.3155 165.724 53.4242 167.746 54.2068L169.018 54.4025C169.311 54.4025 170.452 54.4351 170.55 54.5655C170.55 54.5655 170.779 55.0873 171.105 55.3807C171.659 55.9025 172.605 56.5547 172.605 56.5547C174.105 56.8482 175.963 56.8808 176.518 56.8808C176.942 56.8808 177.3 56.7829 177.822 56.6525C178.148 56.4242 178.605 56.4568 178.931 56.4242C179.387 56.359 179.876 55.9351 180.887 56.5221C181.083 56.6199 181.344 56.6199 181.539 56.6199C182.746 56.6199 184.8 55.446 188.583 53.4568C188.681 53.4568 189.007 53.1307 189.039 53.1307L189.92 52.8373C190.703 52.5112 191.942 52.1525 192.659 51.0764C194.29 48.3372 194.746 47.4568 194.746 45.0111C194.746 43.9024 194.453 43.1524 193.963 42.5328C193.05 41.4241 191.583 41.6198 190.279 41.6198H189.855C189.659 41.6198 188.453 41.6198 188.126 42.3698C188.126 42.3698 186.92 43.8046 186.17 44.6198C185.485 45.5003 185.485 45.7937 184.963 46.3807C184.67 46.6742 184.05 47.0329 183.789 47.359C183.561 47.8155 182.811 48.4351 182.811 48.4351C182.289 48.859 181.539 48.6633 180.855 48.7285C180.529 48.7938 180.17 48.7938 179.876 48.8264C179.648 48.9242 178.996 49.1525 178.702 49.2829C178.409 49.3807 177.724 49.2829 177.659 49.2829C177.561 49.2829 177.333 49.2177 177.007 48.9894C176.452 48.5655 176.126 48.4677 175.507 48.4677C174.822 48.4677 173.746 48.2394 173.746 48.2394C173.42 47.8155 172.963 47.359 172.344 46.8372C171.887 46.4133 171.105 46.6742 170.485 46.5111C168.757 45.7285 168.235 43.7068 168.235 43.7068C168.235 43.7068 168.007 42.8263 168.007 42.5328C167.942 42.1089 167.681 41.0328 167.681 41.0328C167.452 40.3807 167.257 40.0546 167.257 39.0763C167.257 39.0763 168.659 38.2937 169.279 38.2937C169.376 38.2937 169.702 38.3589 169.963 38.3915C170.289 38.4567 170.648 38.6198 171.072 38.6198C171.496 38.6198 171.855 38.3915 172.246 38.2937C172.474 38.2285 172.898 38.098 172.898 38.098C173.322 38.098 173.681 38.098 174.007 38.2937C174.235 38.3915 174.561 38.6198 174.985 38.6198C175.409 38.6198 175.67 38.3915 176.42 38.098C176.844 37.7719 177.626 37.5763 177.855 37.5763C177.855 37.5763 180.268 37.7719 181.246 37.9024C183.398 38.1306 184.409 38.2285 184.833 38.2285C185.159 38.2285 185.518 38.1306 186.463 37.9024C186.985 37.7067 187.735 37.5763 187.735 37.5763C188.159 37.5763 188.779 37.6741 189.007 37.7719C189.463 38.0002 189.92 38.098 190.181 38.098C191.909 38.098 194.518 36.598 194.746 34.4132C194.811 33.7285 195.431 33.0437 195.724 32.1632C196.018 31.4458 195.757 31.0219 195.757 30.6632ZM157.931 27.011C157.931 26.4567 157.833 25.9349 157.507 25.348C157.441 24.924 157.278 24.5654 157.278 24.2393C157.213 24.011 157.213 23.5871 157.213 23.261C157.278 22.511 157.278 21.6306 157.148 20.7827C156.855 20.0327 156.463 19.4784 156.105 19.0545C155.909 18.9566 155.778 18.761 155.778 18.6305C155.583 18.4023 155.452 18.174 155.257 17.8805C154.474 16.3479 153.398 14.587 152.257 14.5218C151.735 14.5218 151.344 14.7501 151.05 14.9457L150.365 14.8153C149.811 14.4892 149.485 14.2609 149.159 14.2609C148.507 14.2609 146.289 14.8153 145.474 15.1088L144.202 16.0218C144.007 16.1197 143.909 16.8044 143.909 16.8044C143.909 16.8044 143.387 16.6414 143.257 16.6414C142.735 16.7392 141.496 16.7392 141.007 17.3914C141.007 17.3914 140.452 18.0436 140.224 18.3045C139.246 19.2827 139.05 19.6088 138.333 19.5762C137.876 19.5762 137.778 19.511 137.452 18.0762C137.224 16.674 136.767 14.3914 133.963 14.3588C133.311 14.2936 132.659 14.2936 132.3 14.2936L131.126 14.9457C130.702 14.9457 130.213 13.837 129.463 14.1957L124.963 14.4892C124.278 14.3914 123.528 14.0653 123.039 14.0979C122.354 14.1305 122.061 14.587 121.8 14.6196C119.941 15.0762 118.8 16.9023 118.735 18.3371C118.67 19.5436 119.615 20.7175 120.17 21.3371C120.626 21.8588 122.191 23.424 123.985 23.4893C124.507 23.4893 124.963 23.261 125.713 22.9349C125.941 22.8045 126.267 22.6088 126.267 22.6088C126.267 22.6088 128.289 23.5871 129.202 24.3371C129.887 25.6415 129.757 27.2067 129.724 28.8045C129.659 29.3263 129.659 29.9132 129.659 30.5328L129.593 34.2502V37.8698L129.398 39.1741C129.202 39.7285 129.17 40.5763 129.202 41.2285C129.202 41.7502 129.267 42.6307 129.43 43.3807C129.496 43.6089 129.626 44.1307 129.626 44.2611C129.626 44.2611 129.202 46.9024 128.941 47.7503C128.713 48.2068 128.028 48.5329 127.441 48.859C127.213 48.9568 126.887 49.1851 126.887 49.1851C126.952 49.1198 125.974 48.8916 125.974 48.8916C125.289 48.6959 124.93 48.6633 124.702 48.6633C123.952 48.5981 121.343 49.0872 121.246 52.022C121.246 53.0655 121.474 53.8807 121.996 54.3373C121.996 54.3373 123.202 56.0655 124.083 56.0655C124.507 56.0655 124.833 55.8699 125.713 55.5438C126.007 55.3481 126.235 55.609 126.235 55.609C126.235 55.609 126.887 55.3808 127.017 55.4134C127.474 55.7394 127.996 55.8373 128.42 55.8373C128.843 55.8373 129.398 55.9351 129.952 55.7721C130.18 55.7068 131.061 55.2829 131.061 55.2829C131.876 55.7721 132.594 56.196 133.017 56.2286H136.93C137.452 56.2286 137.974 56.2286 138.691 55.9025C138.985 55.8047 139.017 55.4134 139.148 55.3807L140.126 55.8047C140.517 56.0003 140.974 56.0981 141.398 56.1308C141.92 56.1308 142.376 55.9351 142.8 55.8373L143.681 55.7394C143.876 55.6742 144.333 55.5112 144.659 55.5438H145.539C147.268 55.446 148.539 52.9025 148.604 51.859C148.604 50.9786 148.148 50.1307 147.561 49.5764C147.104 48.9242 146.354 48.5981 145.67 48.5329C145.213 48.5329 144.789 48.6307 144.398 48.7612C144.17 48.8264 143.354 48.9568 143.354 48.9568C142.67 48.8916 140.615 48.8916 139.67 48.6307C138.626 48.2068 137.354 47.1307 136.735 46.4785C136.409 45.7285 136.637 43.8698 136.735 42.8589C136.735 42.435 136.833 42.1741 136.833 41.8155L136.898 40.7394C136.996 39.3372 137.094 36.7611 137.094 36.7611C137.094 36.7611 137.094 35.9785 137.028 35.7828C137.028 35.5545 136.93 35.3263 136.93 35.2285C136.93 35.0002 136.604 33.3698 137.224 32.9785C137.648 32.6524 137.517 32.0654 137.974 31.7067C139.409 30.6632 139.996 30.0436 140.681 28.5436C140.974 27.8915 141.365 26.9132 141.365 26.9132C141.691 26.4893 143.257 25.511 144.235 24.6632C144.691 24.011 144.887 23.9784 145.344 23.6849C145.865 23.2284 146.518 23.1632 146.518 23.1632L146.746 23.7175C146.746 24.011 146.648 24.2719 146.518 24.5001C146.094 25.4784 145.996 26.1306 145.996 26.6523C145.931 27.9567 147.952 30.6306 149.126 31.3154C149.648 31.6089 150.235 31.7719 150.757 31.8371L150.985 31.9676C151.409 32.2937 151.735 32.6524 152.289 32.6524C152.746 32.6524 153.333 32.3589 153.724 31.8697C154.148 31.4132 154.605 31.8697 154.833 31.4132C154.833 31.4132 155.355 30.7284 155.876 30.5002C156.398 30.2067 156.789 29.9458 157.181 29.3915C157.702 28.6415 157.931 27.6632 157.931 27.011ZM120.789 51.7612C120.789 48.272 117.952 48.0438 116.224 47.9133C115.702 47.8481 115.115 47.8481 114.952 47.7177C114.398 47.4894 113.909 47.0329 113.909 46.609C113.909 46.609 114.104 45.7285 114.202 45.3046C114.496 44.1307 114.3 43.5763 114.3 43.2176C114.3 42.7611 114.496 42.2394 114.202 41.4894C114.137 41.2611 114.104 41.0328 114.006 40.935C114.006 40.935 114.104 40.4785 114.202 40.1524C114.3 39.8263 114.398 39.4676 114.398 39.1089C114.398 38.4567 114.169 37.8372 113.941 37.2502C113.876 37.0546 113.843 36.9241 113.746 36.7937L113.68 35.8806C113.746 35.6524 113.746 35.6524 113.746 35.1959C113.746 34.8698 113.68 34.0219 113.843 33.6958C113.941 33.5002 114.039 33.2719 114.137 33.1415C114.43 32.685 114.789 32.0328 114.789 31.5111C114.789 31.5111 115.213 25.511 115.213 24.9893V24.598C115.278 23.5545 115.278 22.3479 115.148 21.4675V21.6958C115.148 21.1414 114.92 20.7175 114.724 20.424L114.659 19.7392C114.593 18.5653 114.593 17.261 113.615 16.674C112.506 15.9892 110.615 15.7936 110.159 15.7936C109.833 15.7936 109.474 15.8588 109.05 15.8914C108.756 15.8914 108.528 15.8262 108.365 15.8262C108.365 15.8262 107.909 15.7283 107.615 15.5979C106.865 15.174 106.409 14.9457 105.952 14.9457C105.496 14.9457 105.398 15.4349 104.974 15.6631C104.746 15.7283 103.93 15.4675 103.865 15.4675L102.887 15.2392C102.235 15.0436 101.909 14.9457 101.582 14.9457C99.952 14.9457 96.2346 18.9892 96.2346 20.7501C96.2346 21.4349 96.5281 22.0545 97.1151 22.6414C98.1911 23.7501 99.9846 24.2719 100.832 24.2719C101.485 24.2719 102.104 23.9784 102.267 23.9784L103.702 24.7936L104.224 24.8914C104.55 24.9893 104.746 25.0871 105.104 25.0871C105.3 25.1523 105.854 25.1849 105.985 25.2828L106.409 26.0654C106.409 26.0654 106.474 26.7175 105.659 27.1741L105.235 27.4023L105.039 27.8589C104.811 28.8371 105.267 29.7176 105.593 30.2719C105.691 30.4676 105.919 31.0219 105.919 31.1524L105.626 32.4567C105.43 33.1415 105.3 33.8915 105.332 34.6415L105.789 35.8154C105.887 36.0437 106.115 36.5002 106.115 36.5002C106.115 36.5002 105.202 39.7285 104.485 40.9676C103.832 42.1415 102.985 43.1524 102.104 44.2611C101.582 44.9133 100.996 45.5655 100.474 46.2829C100.05 46.9351 98.9738 48.4351 98.2238 48.4351H97.9955C95.8433 48.4351 95.1259 48.3372 95.1259 48.3372C93.9194 47.7829 93.1042 46.8046 92.1259 45.5003L92.0607 45.435C91.5063 44.685 91.6041 42.272 91.6368 41.1633C91.6368 40.7394 91.702 40.2502 91.7346 39.7285C91.9302 38.3263 91.9628 37.5437 91.7998 36.9893V36.8915C91.5715 36.3372 91.2781 35.9785 91.0498 35.7176C90.8541 35.5219 90.8541 35.5219 90.8541 35.2937C90.8541 35.0002 91.5063 32.4241 91.5063 32.4241C91.5715 32.4241 92.1585 31.6741 92.1911 31.6415L92.4846 30.7284C92.6802 30.0763 92.1585 29.5545 91.702 28.9676C91.4737 28.6741 91.2781 28.3154 91.1802 28.0871L91.0824 27.6306V26.2284C91.0824 25.1849 91.2781 24.8262 91.5063 24.3371C91.7998 23.8154 92.1585 23.1632 92.1585 21.9566C92.1585 21.0436 91.9628 19.4784 91.4737 18.7936C91.2454 18.4675 91.0172 18.3697 90.7237 18.1088C89.2237 16.4457 87.4628 15.4023 85.4085 15.4023C85.0824 15.4023 84.7237 15.5001 84.1041 15.6305C83.8758 15.6957 83.615 16.1849 83.4519 16.1849L82.1476 15.5327C81.365 15.3044 80.941 15.2066 80.615 15.2066C80.0932 15.2066 76.8975 16.3805 76.8975 18.2066C76.8975 18.8588 76.8323 19.7392 76.7019 20.4566C76.6367 21.011 76.6367 21.3371 76.6367 21.5001C76.6367 22.2501 77.0606 23.0327 77.8432 23.8806C78.6258 24.761 80.1258 25.7393 81.2345 25.7393C81.7889 25.7393 82.1476 25.511 82.4084 25.3154C82.7019 25.1197 83.4519 26.848 83.4519 30.435L83.5498 32.2937C83.615 33.598 83.7454 34.7067 83.7454 34.7067C83.6802 34.7719 83.6476 35.1306 83.5498 35.1632C83.4519 35.4567 83.3541 35.7176 83.3541 36.2067V42.9894C83.3541 43.7394 83.8106 44.1633 83.8106 44.6198L84.1041 45.5003C84.2019 46.022 84.4302 46.8046 84.4302 46.8046C84.4302 46.8698 88.4737 56.2612 92.5824 56.2612C92.9085 56.2612 93.365 56.196 93.7563 56.1634C93.952 56.0981 94.2129 55.6416 94.3107 55.6416C94.3107 55.6416 94.7346 56.196 94.9629 56.2938C95.4846 56.4895 95.9411 56.6199 96.365 56.6199C96.8216 56.6199 97.2781 56.4242 97.7998 56.2938C98.0281 56.2286 98.3216 56.0655 98.452 56.0655L99.202 56.2612C99.6585 56.359 100.082 56.4894 100.409 56.4894C100.93 56.4894 101.191 56.4895 101.615 56.2938L101.811 56.0981C102.267 55.7721 102.854 55.4134 103.441 55.0547C104.126 54.5981 105.104 53.8481 105.104 53.8481C105.528 53.5547 106.376 53.1633 106.637 52.8046C106.832 52.5764 106.93 52.7068 106.93 52.7068C106.93 52.7068 107.159 53.0003 107.224 53.2612C107.322 53.5546 107.419 53.7829 107.517 53.946L107.713 54.2394L107.941 54.3373C108.267 54.5329 109.343 54.6634 109.669 54.8916C111.104 55.6416 111.561 55.8047 111.854 55.8047C112.18 55.8047 112.637 55.7068 112.767 55.609L113.941 56.0329C114.985 56.359 115.376 56.5547 115.702 56.5547C116.68 56.5547 116.909 56.0655 117.887 54.859L118.539 54.7938C118.539 54.7938 118.767 54.3373 118.963 54.3373C119.648 54.3373 120.072 54.0112 120.267 53.6851C120.528 53.2286 120.789 52.6416 120.789 51.7612ZM36.5277 47.4568C36.4625 47.4242 36.3973 47.3916 36.3647 47.359C35.8103 47.0655 35.6147 47.522 35.1256 47.2611C34.4734 46.9677 34.3756 47.1633 34.0169 47.2285C33.2016 47.3916 33.6256 47.522 33.1038 47.8481C32.5169 48.1742 32.419 49.0546 32.419 49.0546C32.419 49.0546 31.2777 49.7394 31.2125 48.5329L30.8864 47.6198C30.6908 46.9677 30.006 46.4133 30.3647 46.1851L31.0495 44.9133C31.1147 44.4568 31.3755 44.1307 31.2777 43.6416C31.0494 43.2176 30.9516 42.7285 30.8538 42.5328C30.8538 42.5328 30.5929 41.5872 30.6908 41.3915C30.9842 40.935 31.2451 40.935 31.2451 40.4785C31.1473 39.5654 31.0168 38.9459 31.3429 38.0002C31.6364 37.348 31.0495 36.2719 31.0495 36.2719C31.2451 35.2285 31.7016 35.3589 31.6038 33.6632C31.5386 32.9784 31.9299 32.3589 31.4081 31.7393C31.4081 31.7393 31.1147 31.4132 31.2125 31.2828L31.6038 30.5654C31.7016 30.1089 31.669 29.5871 31.4408 29.0328L31.1147 28.5763L31.1473 27.8915C31.3755 27.2393 31.2125 26.7175 31.2125 26.2284C31.0495 24.9567 29.5168 22.1197 29.5168 22.1197C29.0929 21.6632 28.9625 21.1088 28.5386 20.7827C28.2451 20.6197 27.8538 20.5871 27.8212 20.4892C27.7233 20.4566 27.6581 20.0001 27.6581 19.8697C27.3646 19.3479 27.0059 18.9566 26.3864 18.6958C26.3864 18.6958 25.5059 18.2066 25.1146 18.174C24.8212 18.1414 24.4625 18.0436 24.2342 17.9458L23.8103 17.6197C23.582 17.1957 23.1581 17.0653 22.6364 16.9349C22.6364 16.9349 21.9842 16.837 21.4298 16.8697C21.1037 16.8697 20.745 16.7718 20.4516 16.8371C20.3537 16.9023 20.2559 16.9023 20.2233 16.9023L19.5059 16.6414C18.9189 16.3153 18.6255 16.2501 18.2015 16.3153C17.4515 16.3153 17.1907 16.8697 16.7015 17.2936C16.6037 17.3914 15.5602 17.3914 15.4298 17.3588C15.1363 17.3262 14.9733 17.2284 14.5494 17.2936C14.1254 17.2936 13.832 17.3588 12.9189 17.7827C12.5928 17.9131 11.8754 17.9131 11.8754 17.9131C11.8754 17.9131 11.3537 17.9784 11.1254 17.9458C10.6689 17.8479 9.88629 17.6849 9.52759 17.6849C8.87541 17.6849 8.64715 18.5001 7.7341 18.9566C7.50584 19.1523 7.08192 19.0871 6.78844 19.2501C6.69062 19.3153 6.46235 19.9675 6.33192 20.0327C5.35365 20.7501 5.12539 21.7284 4.31017 21.5979C4.14712 21.5979 3.42973 22.0545 3.3319 22.1523C2.64711 22.7719 2.19059 23.5219 2.19059 23.5219C1.73407 24.1088 1.44059 25.1523 1.44059 25.6415C1.44059 25.7067 1.40798 26.0654 1.40798 26.1632C1.40798 27.7936 1.44059 29.7502 1.96233 30.9567C2.35363 31.935 4.37539 33.435 5.41887 33.4024C5.71235 33.4024 5.81018 33.1415 6.10366 33.1415C6.39714 33.1415 6.6254 32.9132 6.78844 33.3045C6.78844 33.3045 7.08192 33.4024 7.24497 33.4676C7.70149 33.5654 8.12541 33.6958 8.4515 33.6632C9.36454 33.6306 10.8972 31.8045 10.9624 31.185C11.1254 30.2393 11.2559 28.7067 11.2233 28.2502C11.2233 27.5654 10.8646 27.1088 10.6363 26.8806C10.408 26.6197 10.3102 26.6197 10.245 26.1958C10.245 25.6741 10.7015 25.4458 10.7341 25.3806L12.2667 24.8588C12.9189 24.8588 14.2559 25.8371 14.7124 25.3154C14.7124 25.3154 15.1363 25.1849 15.2668 25.3154C15.9189 25.7719 15.6907 26.0654 16.4407 26.0328C16.8646 26.0328 17.6798 25.7719 18.332 25.3806L19.0168 25.4132C19.4407 25.6414 19.1798 25.8697 19.6037 25.9675C20.0603 26.0654 20.7124 26.1632 21.1363 26.2284L22.0168 26.0328C23.2233 26.5545 23.1907 28.2502 23.2885 29.1958C23.2885 29.6523 22.8646 31.8045 22.7668 32.8154L22.1146 33.1089C21.6907 33.5654 20.9733 32.848 20.7124 32.848C20.1581 32.848 19.9624 32.8806 18.4624 34.0545L17.6798 34.348C17.1255 34.5763 17.0276 34.6089 16.7341 35.0328C16.6363 35.098 15.9515 34.6089 15.9515 34.6089C15.1689 34.185 14.4189 35.2611 13.9624 35.2611C12.4298 35.2611 12.4624 34.7719 11.5819 35.8154C11.5819 35.8154 9.69063 35.9132 9.46237 36.0111C8.71237 36.3046 8.54932 35.9459 7.57106 36.4024C6.6254 36.8589 6.82105 37.5437 6.59279 37.6415C6.65801 37.6415 6.00583 37.3806 6.00583 37.3806C5.94061 37.3806 5.67974 37.4459 5.48409 37.4459C4.92974 37.5111 3.85364 38.522 3.85364 38.522C1.99494 39.435 0.13623 44.0981 0.13623 44.9459C0.13623 45.4024 0.331884 45.8916 0.527537 46.3481C0.723191 46.6742 0.299275 46.9677 0.364493 47.2938C0.364493 47.6198 0.429711 48.0764 0.429711 48.5003C0.494929 49.022 0.494928 49.4785 0.527537 49.9025C0.527537 49.9025 1.08189 51.7612 1.92972 52.1851L2.45146 52.4786C2.64711 52.5764 3.20147 53.0003 3.20147 53.0003C3.72321 53.9786 4.40799 54.7612 5.09278 55.0547C5.64713 55.2829 6.07105 55.0221 6.6254 55.0873C7.14714 55.1851 7.83193 55.8373 7.83193 55.8373C8.02758 55.9351 8.28845 56.1308 8.51671 56.2938C9.5602 56.9786 10.1798 57.3373 10.7667 57.3373C11.4189 57.3373 11.8754 57.0438 12.3972 56.7829C12.4624 56.7177 13.6037 56.359 13.6689 56.359L17.7776 56.1634C17.8755 56.1634 18.1037 56.1634 18.4298 56.2286C18.7233 56.2938 19.082 56.3264 19.3429 56.3264C20.1255 56.3264 20.6472 56.0329 20.9733 55.9025L21.495 55.4786C21.7233 55.1851 22.1798 54.7938 22.3755 54.7286L22.8972 54.5981C23.4516 54.5003 24.2016 54.3699 24.7885 53.8155V53.8807C25.2451 53.4568 25.5385 53.0003 25.669 52.772C25.669 52.772 26.6473 53.0003 27.1038 53.2938L27.6581 53.9786C27.8864 54.3047 28.1799 54.7612 28.5712 55.0873C29.6799 55.7721 30.3321 56.1308 31.2125 56.1308C31.5386 56.1308 32.9734 56.0655 33.169 56.0329L34.0495 55.8047C34.5712 56.0329 34.6038 56.2286 34.9625 56.2286C35.4516 56.2286 36.1038 55.7068 36.4625 55.4134C36.8212 55.3808 37.2125 55.2829 37.506 55.1525C37.7343 55.0547 38.1908 54.9242 38.2886 54.859L39.0712 55.1851C39.2995 55.6416 39.8212 55.8373 40.1147 55.8373C40.4408 55.7721 40.5712 55.9025 40.9952 55.7394C41.1908 55.6742 41.9082 55.446 42.1039 55.6416C42.9843 56.0981 43.4082 56.3916 43.9626 56.3916C44.2887 56.3916 44.6474 56.196 45.3647 55.9677C45.593 55.8699 46.0495 55.6742 46.1474 55.6416C46.1474 55.6416 46.4734 55.8373 47.1256 55.8699C49.1474 56.0981 49.8322 56.1634 50.0604 56.1634C50.3865 56.1634 50.7452 56.0981 51.267 55.9351C51.3648 55.8699 51.8213 55.7394 51.8213 55.7394C51.8213 55.7394 53.1257 55.9677 53.68 56.0329C54.8865 56.3264 54.7235 56.4568 54.9518 56.4568C55.2452 56.4568 55.6365 56.2612 56.4844 55.9351C56.8105 55.8373 58.017 55.6416 58.017 55.6416C58.3105 55.7395 58.6692 55.8699 59.0605 55.8699C59.5822 55.8699 60.0387 55.5764 60.4627 55.1199C60.5279 55.0547 60.6583 54.9242 60.6909 54.8264L61.1148 55.022C61.3431 55.4786 61.8974 55.6742 62.2235 55.6742C62.5496 55.609 63.0062 55.7394 63.4301 55.5764C63.4301 55.5764 63.9518 55.2829 64.1149 55.4786C64.9953 55.9351 65.4192 56.2286 65.9736 56.2286C66.2997 56.2286 66.6583 56.0329 67.3757 55.8047C67.604 55.7068 68.1584 55.5112 68.2888 55.4786C68.2888 55.4786 69.5931 55.6742 70.2453 55.7068C72.2671 55.9351 72.9519 56.0003 73.1801 56.0003C73.5062 56.0003 73.8649 55.9351 74.3867 55.7721C74.4845 55.7068 74.941 55.5764 74.941 55.5764C74.941 55.5764 76.2454 55.8047 76.7997 55.8699C78.0062 56.1634 77.8432 56.2938 78.0714 56.2938C78.3649 56.2938 78.7562 56.0981 79.6041 55.7721C79.9302 55.6742 81.1367 55.4786 81.1367 55.4786C81.4302 55.5764 81.7889 55.7068 82.1802 55.7068C82.7019 55.7068 83.1584 55.4134 83.5824 54.9568C84.4954 54.2068 85.1802 52.609 85.1802 51.859C85.1802 50.5872 84.8541 49.6742 84.1367 48.9894C83.0932 47.9459 82.9302 48.3046 82.115 47.8807L80.2562 47.9459C79.7997 47.9459 78.5932 48.1742 77.778 48.4025C77.778 48.4025 77.0932 48.6959 76.8649 48.8264C76.7671 48.8916 75.9845 48.6307 75.9845 48.6307C75.3323 48.4025 75.4301 48.2068 75.0714 48.2068H74.028L73.2453 46.8046C72.9193 45.4024 73.3432 44.6524 73.3106 44.1959L73.5388 42.4676C73.8649 41.2937 74.0606 40.8046 74.0606 40.4459C74.0606 39.7611 73.8323 39.272 73.604 39.0437C73.5062 38.7176 73.3106 38.3915 73.7019 36.6632C73.7997 36.1415 73.6367 35.1306 73.6367 35.1306C73.6367 35.0328 73.441 34.4785 73.4084 34.3806C73.2127 34.0545 72.9845 33.4024 72.9519 33.2067L73.278 32.2937C73.5714 31.4132 73.7997 30.9893 73.7997 30.5328C73.7997 29.8806 73.5714 29.4893 73.278 29.0328C73.0497 28.4784 72.7562 27.761 72.7562 26.1958C72.691 25.9023 72.8214 24.0436 72.7562 22.3806L72.8214 19.9675C72.8214 19.9675 73.0171 19.5436 73.1475 19.3153C73.3432 18.8914 73.5714 18.4349 73.6693 17.8805C73.7671 17.2284 73.7345 16.5762 73.6693 15.9892C73.604 15.6957 73.604 15.2066 73.604 15.2066C73.6693 14.7501 73.8975 14.1631 74.1584 13.674C74.6801 12.174 74.9084 11.6522 74.9084 11.1957C74.9084 10.7392 74.6149 10.2174 74.028 9.43483C73.9301 9.20657 73.7345 8.88048 73.7019 8.75004C73.7019 8.75004 73.4736 7.54352 73.278 6.79351C72.9845 5.68481 72.7236 4.60872 72.5932 3.63045L72.5279 3.30436L72.2997 3.0761C72.104 2.97827 71.1258 1.90218 70.2127 1.90218C69.5279 1.9674 69.3323 1.90218 68.7779 2.42392H68.191C68.191 2.42392 67.8975 1.90218 67.1475 1.90218C66.5931 1.90218 65.8431 1.80435 65.6149 2.00001L64.2127 2.09783C63.2344 1.54348 63.1692 1.44566 62.6801 1.44566C62.354 1.44566 62.1257 1.54348 61.8974 1.64131L60.9192 1.18478C60.0387 0.663041 59.6474 0.5 59.2561 0.5C56.8757 0.565218 55.1474 4.77176 55.2126 6.59786C55.2126 9.3044 56.8431 10.1848 58.0822 10.9348C58.2779 10.9348 59.0605 10.837 59.2235 10.9348C59.3214 11.0001 59.4844 11.6848 59.6148 11.8805C60.0387 12.337 60.3974 12.174 60.7887 12.2066C60.7887 12.2066 60.8214 12.0435 61.2453 11.9457C61.2453 11.9457 62.354 12.6305 62.9083 12.6305C63.4627 12.6305 63.5605 12.174 64.017 11.8479L64.3431 12.5327C64.4409 12.9566 64.5388 13.4131 64.6692 13.837C64.6692 13.837 65.1257 15.0109 65.5496 15.5653L65.8431 16.3153C65.6475 16.6414 65.1257 17.0001 65.1257 17.4566C65.1257 17.7501 65.517 18.2066 65.5823 18.5001C65.6475 18.8262 65.6475 19.3805 65.6475 19.6088L65.354 20.3588C65.0605 20.7827 64.8975 21.2392 64.8975 21.6632C64.8975 22.5762 65.4518 23.1632 65.8105 23.5545C66.104 23.8806 66.2344 24.011 66.2344 24.3045C66.2344 24.3045 66.0388 24.8262 65.941 25.0871C65.8431 25.511 65.6475 25.8697 65.6475 26.2936C65.4192 27.2719 65.5823 28.3154 65.7453 29.0328C65.7453 29.2284 66.0388 30.435 66.0388 30.5328L65.941 33.1741C65.941 33.6958 65.8757 34.1524 65.8757 34.6089C65.8105 35.098 65.7453 35.5546 65.7779 36.0437C65.6801 36.8263 65.5496 37.6741 65.5496 38.4567L66.2997 39.1741C66.3975 39.4024 65.8431 40.1198 65.8431 40.2176C65.8431 40.4133 66.0388 40.772 65.8431 41.0981C65.7127 41.4894 65.6149 41.8807 65.5496 42.3046C65.5496 42.9894 65.4844 43.7068 65.4518 44.3263C65.3866 44.7829 65.354 45.2394 65.354 45.5329C65.354 45.8264 64.9301 46.185 64.9301 46.4459C64.8649 46.8698 64.8323 47.6198 64.6366 47.7503L63.6583 47.4242C62.6801 47.0981 62.4518 47.3264 62.1257 47.3264C61.9301 47.3264 61.3757 47.0981 61.0822 47.1307C60.2996 47.2285 59.68 47.4242 59.4518 47.4242C59.4518 47.4242 59.2235 47.359 58.9953 47.2285C58.3105 47.1307 58.017 47.1307 57.6909 47.1307C56.6148 47.1307 55.7996 47.6851 55.2778 48.4351C55.18 48.4351 55.0496 48.4351 54.9518 48.5003C54.9518 48.5003 54.267 48.7938 54.0387 48.9242C53.9409 48.9894 53.1583 48.7285 53.1583 48.7285C52.5061 48.5003 52.6039 48.3046 52.2452 48.3046H51.2017L50.7452 46.9024C50.3213 45.5003 50.517 44.7503 50.4517 44.2937L50.68 42.5655C51.0061 41.3915 51.2017 40.9024 51.2017 40.5437C51.2017 39.8589 50.9735 39.3698 50.7778 39.1415C50.5822 38.8154 50.4517 38.4893 50.843 36.7611C50.9409 36.2393 50.7778 35.2285 50.7778 35.2285C50.7778 35.1306 50.5822 34.5763 50.5496 34.4785C50.3539 34.1524 50.1256 33.5002 50.093 33.3045L50.517 32.3915C50.7452 31.511 50.9735 31.0871 50.9735 30.6306C50.9735 29.9784 50.7452 29.5871 50.517 29.1306C50.2235 28.5762 49.9626 27.8589 49.9626 26.2936C49.9626 26.0002 50.0278 24.1414 50.0278 22.4784V20.0653C50.0278 20.0653 50.2235 19.6414 50.3539 19.4132C50.5496 18.9892 50.7778 18.5327 50.8756 17.9784C50.9735 17.3262 50.9409 16.674 50.8756 16.087C50.8104 15.7936 50.8104 15.3044 50.8104 15.3044C50.8756 14.8479 51.1039 14.2609 51.3648 13.7718C51.8865 12.2718 52.1148 11.7501 52.1148 11.2935C52.1148 10.837 51.8213 10.3153 51.3322 9.53265C51.1365 9.30439 51.0061 8.97831 50.9083 8.84788C50.9083 8.84788 50.68 7.64134 50.4843 6.89134C50.1909 5.78264 49.93 4.70654 49.7996 3.72828L49.7343 3.40219L49.5061 3.17393C49.3104 3.0761 48.3322 2.00001 47.4191 2.00001C46.7343 2.06522 46.5387 2.00001 45.9843 2.52175H45.2343C45.2343 2.52175 44.9408 2.00001 44.1908 2.00001C43.6365 2.00001 42.8865 1.90218 42.6582 2.09783L41.256 2.19566C40.2778 1.64131 39.8212 1.54348 39.2995 1.54348C38.9734 1.54348 38.6473 1.64131 38.4191 1.73913L37.3756 1.28261C36.4625 0.760869 36.0712 0.597823 35.6473 0.597823C33.1364 0.66304 30.5277 4.86959 30.5603 6.69569C30.6255 9.40223 32.2886 10.2827 33.6255 11.0327C33.8212 11.0327 34.6364 11.424 34.8321 11.5218C34.9299 11.587 34.9299 11.8153 35.0603 12.0109C35.4843 12.4675 35.8103 12.5001 36.5603 12.5001C37.2125 12.5001 37.4734 11.9457 37.8647 11.8153C37.8647 11.8153 38.8756 12.7283 39.5278 12.7283C40.0821 12.7283 40.506 12.2718 40.9626 11.9457L41.2886 12.6305C41.3865 13.0544 41.4843 13.5109 41.6147 13.9349C41.6147 13.9349 42.0713 15.1088 42.4952 15.6631L42.7886 16.4131C42.593 16.7392 42.1039 17.0979 42.1039 17.5544C42.1039 17.8479 42.43 18.3045 42.5278 18.5979C42.593 18.924 42.6256 19.4784 42.593 19.7066L42.2995 20.4566C42.006 20.8805 41.843 21.3371 41.843 21.761C41.9082 22.674 42.3973 23.261 42.756 23.6523C43.0495 23.9784 43.18 24.1088 43.18 24.4023C43.18 24.4023 42.9843 24.924 42.8865 25.1849C42.7886 25.6088 42.6582 25.9675 42.593 26.3915C42.3647 27.3697 42.5278 28.4132 42.7886 29.1306C42.7886 29.3263 43.0169 30.5328 43.0169 30.6306L42.9191 33.2719C42.9191 33.7937 42.8539 34.2502 42.8539 34.7067C42.7886 35.1959 42.7234 35.6524 42.756 36.1415C42.6582 36.9241 42.5278 37.7719 42.5278 38.5546L43.18 39.272C43.2778 39.5002 42.7886 40.2176 42.7886 40.3154C42.7886 40.5111 42.9843 40.8698 42.7886 41.1959C42.6908 41.522 42.5604 41.9459 42.5604 42.4024C42.4952 43.0872 42.4626 43.8046 42.3647 44.4242C42.2995 44.8807 42.2669 45.3372 42.2995 45.6307C42.2343 45.9242 42.2017 46.2177 42.2017 46.5437C42.1365 46.9677 41.7452 47.7177 41.5495 47.8481L40.506 47.522C39.7234 47.1959 39.5278 47.4242 39.2343 47.4242C39.0386 47.4242 38.5821 47.1959 38.3538 47.2285C37.7017 47.3264 37.8321 47.522 37.7017 47.522C37.7017 47.522 37.4734 47.4568 37.2451 47.3264C36.8864 47.522 36.7234 47.4894 36.5277 47.4568ZM184.376 24.8262C185.322 25.2828 185.42 26.5219 185.42 27.4349C185.42 28.348 184.898 28.7393 184.442 29.6197C183.985 30.5002 183.17 30.1089 182.713 30.3371C181.083 31.0219 179.257 31.348 178.539 31.348C178.083 31.348 175.898 30.435 175.409 30.435C174.855 30.435 174.105 30.8915 173.518 30.8915C173.061 30.8915 172.083 30.2067 171.561 30.2067C171.007 30.2067 169.539 30.6306 168.952 30.6306C167.648 30.6306 167.322 30.1741 167.322 29.2284C167.322 28.2828 168.202 26.1632 169.8 25.7393C170.257 25.5436 171.235 25.9349 171.822 25.4458C172.05 25.1523 172.246 24.011 172.865 23.7175C174.3 22.8045 177.431 21.9566 177.952 21.9566C178.605 21.9566 179.452 22.6414 180.105 23.1306C180.561 23.2284 181.148 23.0653 181.539 23.2284C182.355 23.6197 183.561 24.4349 184.376 24.8262ZM24.169 41.1633L23.8755 44.0003C23.8755 44.5546 22.4733 44.8807 21.8537 45.435C21.3972 45.6633 20.3537 46.4133 20.3537 46.4133C20.0603 46.609 19.5711 46.9351 18.2015 49.2503C18.1363 49.4459 17.745 49.7068 17.6472 49.7068C17.582 49.7068 17.3211 49.6416 17.0928 49.609C16.6363 49.5438 15.7885 49.4785 15.4624 49.4785C15.1363 49.4785 14.4841 49.6742 13.5059 49.9351C13.2124 50.0003 13.0167 50.3916 12.8211 50.4568C12.7559 50.3264 11.8102 50.1633 11.6798 50.0655C10.7993 49.5112 11.2233 49.5112 10.5059 49.5112L9.33193 49.2503C8.67976 48.9568 8.58193 48.3046 7.96236 47.5546C7.76671 47.359 7.99497 46.7394 7.76671 46.5764C7.47323 46.3481 7.99497 46.022 7.99497 45.5981C7.99497 45.5981 7.66888 45.0111 8.41889 44.2611C8.94063 43.5111 9.07106 43.1524 9.07106 43.1524L9.98411 43.185C9.98411 43.185 10.5385 42.6959 10.7341 42.6307L12.2015 42.1089C12.6254 41.8155 12.8537 41.5872 13.082 41.4241C13.1798 41.4241 13.5059 41.2937 14.1254 41.2937C14.582 41.2937 15.0385 40.772 15.5602 40.8372C15.5602 40.8372 17.1907 41.0328 17.8755 41.0328C18.5602 41.0328 20.582 40.5111 22.3755 39.8263C22.5711 39.7285 22.9298 39.6307 23.0603 39.598C23.2559 39.6633 23.3864 39.4676 23.3864 39.5328C23.6798 39.598 23.8429 39.4676 23.9081 39.6307C23.8429 39.6307 24.0711 40.3154 24.169 41.1633Z" fill="#1D1F1E"/>
</svg>
