<svg width="97" height="18" viewBox="0 0 97 18" fill="none" xmlns="http://www.w3.org/2000/svg">
<path d="M0.547363 12.1719C0.748847 15.5075 3.07711 17.5 7.30828 17.5C11.4947 17.5 14.0916 15.5523 14.0916 12.4405C14.0916 9.8436 12.6588 8.58992 9.0097 7.51534L8.18138 7.26908C6.45757 6.73179 5.53969 6.5303 5.53969 5.43334C5.53969 4.64978 6.14415 4.15727 7.24112 4.15727C8.47241 4.15727 9.07686 4.71695 9.27835 5.94824H13.7558C13.5543 2.7021 11.1589 0.911133 7.33067 0.911133C3.32337 0.911133 0.950332 2.79165 0.950332 5.67959C0.950332 8.20934 2.47266 9.79883 6.12176 10.8062L7.15157 11.0973C8.69628 11.5674 9.54699 11.6346 9.54699 12.642C9.54699 13.6046 8.67389 14.1867 7.48738 14.1867C6.07699 14.1867 5.3606 13.5823 5.1815 12.1719H0.547363Z" fill="#1D1F1E"/>
<path d="M29.3028 17.209V4.89604H33.3772V1.20217H20.5718V4.89604H24.6462V17.209H29.3028Z" fill="#1D1F1E"/>
<path d="M48.1935 0.911133C43.1116 0.911133 39.6192 4.13488 39.6192 9.21676C39.6192 14.3882 43.0668 17.5 48.1711 17.5C53.3649 17.5 56.7902 14.3882 56.7902 9.21676C56.7902 4.13488 53.2978 0.911133 48.1935 0.911133ZM48.1935 14.0076C45.6861 14.0076 44.4101 12.1047 44.4101 9.23915C44.4101 6.23927 45.6861 4.31398 48.1935 4.31398C50.7008 4.31398 51.9545 6.1945 51.9545 9.21676C51.9545 12.1495 50.7008 14.0076 48.1935 14.0076Z" fill="#1D1F1E"/>
<path d="M68.8867 11.5674H69.8494L73.0731 17.209H78.2222L74.2149 10.851C75.9163 10.2466 77.4162 8.74663 77.4162 5.92585C77.4162 4.38114 76.767 3.0603 75.6029 2.1872C74.4611 1.40365 73.1627 1.20217 71.2822 1.20217H64.3421V17.209H68.8867V11.5674ZM68.8867 4.69456H70.2523C71.8642 4.69456 72.7597 5.07514 72.7597 6.39598C72.7597 7.5825 71.9314 8.11979 70.409 8.11979H68.8867V4.69456Z" fill="#1D1F1E"/>
<path d="M89.7232 10.9406H95.9021V7.31385H89.7232V4.82888H96.4617V1.20217H85.1115V17.209H96.5513V13.5823H89.7232V10.9406Z" fill="#1D1F1E"/>
</svg>
